<?xml version="1.0" encoding="UTF-8"?>
<svg id="Layer_1" xmlns="http://www.w3.org/2000/svg" version="1.1" viewBox="0 0 1024 1024">
  <!-- Generator: Adobe Illustrator 29.1.0, SVG Export Plug-In . SVG Version: 2.1.0 Build 142)  -->
  <defs>
    <style>
      .st0 {
        fill: #ff3e00;
      }

      .st1 {
        fill: #fff;
      }

      .st2 {
        fill: #fcb32c;
      }
    </style>
  </defs>
  <g>
    <path class="st0" d="M746,147.8C661.5,27,495-8.6,374.5,68.2l-211.6,134.8c-58,36.3-97.8,95.3-110,162.4-2.8,15-4.2,30-4.2,45.4,0,41.6,10.1,82.1,29.7,118.7-18.2,27.6-30.4,58.3-36.3,90.8-12.2,68.4,3.8,139,44.4,195.6,84.5,120.8,251.4,156.4,371.6,79.6l211.3-134.8c58-36.3,97.8-95.3,109.7-162.7,2.8-15,4.2-30,4.2-45.4,0-41.2-10.1-82.1-29.3-118.7,18.2-27.6,30.4-58.3,36.3-90.8,2.8-15,3.8-30,3.8-45.4,0-53.8-16.8-106.5-48.2-150.2h0l.3.3Z"/>
    <path class="st1" d="M353.9,827c-14,3.5-27.9,5.2-42.3,5.2-55.2,0-106.5-26.9-137.9-72.3-18.9-26.5-29-58-29-90.4s.7-18.2,2.4-27.2c1.4-6.6,2.8-13.3,5.2-19.9l3.8-12.2,10.8,8.4c25.1,18.5,53.1,32.5,82.8,41.6l7.7,2.4-.7,7.7v4.2c0,9.8,3.1,19.2,8.7,27.2,9.4,14,24.8,22,41.6,22.4,4.2,0,8.7-.7,12.6-1.7,4.5-1,9.1-3.1,12.9-5.6l211.3-135.5c12.9-8,20.6-22.4,20.6-37.7s-3.1-19.2-9.1-27.2c-9.4-13.6-25.1-21.7-41.6-21.7s-8.7.7-12.6,1.7c-4.5,1-9.1,3.1-12.9,5.6l-80.7,51.3c-13.3,8.4-27.9,14.7-43,18.9-14,3.5-27.9,5.2-42.3,5.2-55.2,0-106.5-26.9-137.9-72.3-18.9-26.5-29-58-29-90.4s.7-18.2,2.4-27.2c7.3-40.5,31.1-75.8,66-97.8l211.6-134.8c13.3-8.4,27.6-14.7,43-18.9,14-3.5,27.9-5.2,42.3-5.2,55.2,0,106.9,26.9,138.6,72.3,18.9,26.5,28.6,58,28.6,90.4s-.7,18.2-2.4,27.2c-1.4,6.6-2.8,13.3-5.2,19.9l-3.8,12.2-10.8-8c-25.1-18.5-53.1-32.5-82.8-41.6l-7.7-2.4.7-7.7v-4.2c0-9.8-3.1-19.6-8.7-27.6-9.4-13.6-25.1-21.7-41.6-21.7s-8.4.7-12.6,2.1c-4.5,1-9.1,3.1-12.9,5.6l-211.6,134.8c-10.5,6.6-17.8,17.5-19.9,29.7-.3,2.4-.7,5.2-1,7.7,0,9.8,3.1,19.2,8.7,27.2,9.4,13.6,25.1,21.7,41.6,21.7s8.7-.7,12.6-1.7c4.5-1,9.1-3.1,12.9-5.6l80.7-51.7c13.3-8.4,27.9-14.7,43-18.9,14-3.5,27.9-5.2,42.3-5.2,55.2,0,106.9,26.9,137.9,72.3,18.9,26.5,29,58,29,90.4s-.7,18.5-2.4,27.6c-7.3,40.5-31.1,75.8-66,97.8l-211.3,134.8c-13.3,8.4-27.9,14.7-43,18.9h.3Z"/>
  </g>
  <g>
    <rect class="st1" x="408.5" y="668.6" width="570.4" height="311.7"/>
    <path class="st2" d="M952.2,996.3H434.1c-22.4,0-40.6-18.2-40.6-40.6v-265.4c0-22.4,18.2-40.6,40.6-40.6h518.3c22.4,0,40.6,18.2,40.6,40.6v265.4c0,22.4-18.2,40.6-40.6,40.6h0ZM434.1,676.5c-7.5,0-13.6,6.1-13.6,13.6h0v265.4c0,7.5,6.1,13.6,13.6,13.6h518.3c7.5,0,13.6-6.1,13.6-13.6v-265.4c0-7.5-6.1-13.6-13.6-13.6H434.1Z"/>
    <path class="st2" d="M897.4,915h-54.1v-105.7l-54.1,67.7-54.1-67.7v105.7h-54.1v-184.2h54.1l54.1,67.7,54.1-67.7h54.1v184.2h0ZM562.3,915l-81.3-89.5h54.1v-94.8h54.1v94.8h54.1l-81.3,89.5h.2Z"/>
  </g>
</svg>